HIERARCHY
ROOT Hips
{
  OFFSET 0.0273292 -0.436096 0.279869
  CHANNELS 6 Xposition Yposition Zposition Zrotation Xrotation Yrotation
  JOINT LHipJoint
  {
    OFFSET 0 0 0
    CHANNELS 6 Xposition Yposition Zposition Zrotation Xrotation Yrotation
    JOINT LeftUpLeg
    {
      OFFSET 1.36306 -1.79463 0
      CHANNELS 6 Xposition Yposition Zposition Zrotation Xrotation Yrotation
      JOINT LeftLeg
      {
        OFFSET 2.44807 -6.72613 0.000295034
        CHANNELS 6 Xposition Yposition Zposition Zrotation Xrotation Yrotation
        JOINT LeftFoot
        {
          OFFSET 2.5622 -7.03959 3.59965e-05
          CHANNELS 6 Xposition Yposition Zposition Zrotation Xrotation Yrotation
          JOINT LeftToeBase
          {
            OFFSET 0.15764 -0.43311 2.32255
            CHANNELS 6 Xposition Yposition Zposition Zrotation Xrotation Yrotation
            End Site
            {
              OFFSET 0 0 0
            }
          }
        }
      }
    }
  }
  JOINT RHipJoint
  {
    OFFSET 0 0 0
    CHANNELS 6 Xposition Yposition Zposition Zrotation Xrotation Yrotation
    JOINT RightUpLeg
    {
      OFFSET -1.30552 -1.79463 0
      CHANNELS 6 Xposition Yposition Zposition Zrotation Xrotation Yrotation
      JOINT RightLeg
      {
        OFFSET -2.54234 -6.98562 -0.000396375
        CHANNELS 6 Xposition Yposition Zposition Zrotation Xrotation Yrotation
        JOINT RightFoot
        {
          OFFSET -2.56826 -7.05623 -4.47982e-05
          CHANNELS 6 Xposition Yposition Zposition Zrotation Xrotation Yrotation
          JOINT RightToeBase
          {
            OFFSET -0.16473 -0.45259 2.36315
            CHANNELS 6 Xposition Yposition Zposition Zrotation Xrotation Yrotation
            End Site
            {
              OFFSET 0 0 0
            }
          }
        }
      }
    }
  }
  JOINT LowerBack
  {
    OFFSET 0 0 0
    CHANNELS 6 Xposition Yposition Zposition Zrotation Xrotation Yrotation
    JOINT Spine
    {
      OFFSET 0.0282699 2.03559 0
      CHANNELS 6 Xposition Yposition Zposition Zrotation Xrotation Yrotation
      JOINT Spine1
      {
        OFFSET 0.05672 2.04885 -0.04275
        CHANNELS 6 Xposition Yposition Zposition Zrotation Xrotation Yrotation
        JOINT Neck
        {
          OFFSET 0 0 0
          CHANNELS 6 Xposition Yposition Zposition Zrotation Xrotation Yrotation
          JOINT Neck1
          {
            OFFSET -0.05417 1.74624 0.17202
            CHANNELS 6 Xposition Yposition Zposition Zrotation Xrotation Yrotation
            JOINT Head
            {
              OFFSET 0.10407 1.76136 -0.12397
              CHANNELS 6 Xposition Yposition Zposition Zrotation Xrotation Yrotation
              End Site
              {
                OFFSET 0 0 0
              }
            }
          }
        }
        JOINT LeftShoulder
        {
          OFFSET 0 0 0
          CHANNELS 6 Xposition Yposition Zposition Zrotation Xrotation Yrotation
          JOINT LeftArm
          {
            OFFSET 3.36241 1.20089 -0.311211
            CHANNELS 6 Xposition Yposition Zposition Zrotation Xrotation Yrotation
            JOINT LeftForeArm
            {
              OFFSET 4.983 0.000197398 0.000166057
              CHANNELS 6 Xposition Yposition Zposition Zrotation Xrotation Yrotation
              JOINT LeftHand
              {
                OFFSET 3.48356 0 1.87849e-05
                CHANNELS 6 Xposition Yposition Zposition Zrotation Xrotation Yrotation
                JOINT LeftFingerBase
                {
                  OFFSET 0 0 0
                  CHANNELS 6 Xposition Yposition Zposition Zrotation Xrotation Yrotation
                  JOINT LeftHandIndex1
                  {
                    OFFSET 0.71526 0 0
                    CHANNELS 6 Xposition Yposition Zposition Zrotation Xrotation Yrotation
                    End Site
                    {
                      OFFSET 0 0 0
                    }
                  }
                }
                JOINT LThumb
                {
                  OFFSET 0 0 0
                  CHANNELS 6 Xposition Yposition Zposition Zrotation Xrotation Yrotation
                  End Site
                  {
                    OFFSET 0 0 0
                  }
                }
              }
            }
          }
        }
        JOINT RightShoulder
        {
          OFFSET 0 0 0
          CHANNELS 6 Xposition Yposition Zposition Zrotation Xrotation Yrotation
          JOINT RightArm
          {
            OFFSET -3.1366 1.37405 -0.404651
            CHANNELS 6 Xposition Yposition Zposition Zrotation Xrotation Yrotation
            JOINT RightForeArm
            {
              OFFSET -5.2419 -5.8808e-05 -0.000165864
              CHANNELS 6 Xposition Yposition Zposition Zrotation Xrotation Yrotation
              JOINT RightHand
              {
                OFFSET -3.44417 0 -2.00002e-05
                CHANNELS 6 Xposition Yposition Zposition Zrotation Xrotation Yrotation
                JOINT RightFingerBase
                {
                  OFFSET 0 0 0
                  CHANNELS 6 Xposition Yposition Zposition Zrotation Xrotation Yrotation
                  JOINT RightHandIndex1
                  {
                    OFFSET -0.62253 0 0
                    CHANNELS 6 Xposition Yposition Zposition Zrotation Xrotation Yrotation
                    End Site
                    {
                      OFFSET 0 0 0
                    }
                  }
                }
                JOINT RThumb
                {
                  OFFSET 0 0 0
                  CHANNELS 6 Xposition Yposition Zposition Zrotation Xrotation Yrotation
                  End Site
                  {
                    OFFSET 0 0 0
                  }
                }
              }
            }
          }
        }
      }
    }
  }
}
MOTION
Frames:	5
Frame Time:	0.00833333
-0.342695 12.8014 -1.91565 9.01428 -19.0604 2.82915 0 0 0 -2.78299e-15 0 -0 1.36306 -1.79463 6.37822e-08 -13.868 -57.7726 1.95127 2.44809 -6.72614 -2.88661e-05 -70.197 62.474 101.3 2.5622 -7.03959 -1.87459e-05 -15.2897 4.23888 2.53626 0.15764 -0.43311 2.32255 2.98177e-16 -2.5842e-15 -0 0 0 0 -2.78299e-15 0 -0 -1.30552 -1.79463 -9.59887e-09 -12.6493 -78.4999 -22.726 -2.54244 -6.9856 0.000503903 126.172 60.0769 -131.008 -2.56826 -7.05622 4.51957e-05 13.6243 35.128 -28.2131 -0.16473 -0.45259 2.36315 -6.36111e-15 -6.36111e-15 7.95139e-15 0 0 0 -2.78299e-15 0 -0 0.02827 2.03559 4.47485e-07 -2.84013 37.0969 -8.43672 0.05672 2.04885 -0.04275 -1.59028e-15 3.18055e-15 -0 0 0 0 0 0 -7.95139e-16 -0.05417 1.74624 0.17202 -1.5342 14.954 -5.33361 0.10407 1.76136 -0.12397 -7.95139e-16 -3.18055e-15 -0 0 0 0 0 0 -7.95139e-16 3.36241 1.20089 -0.31121 -12.2041 -2.93912 6.23714 4.983 0.000188411 0.000168558 -11.662 -20.5939 -9.23301 3.48356 4.97784e-06 -1.0964e-05 7.25234 5.34504 30.7815 0 0 0 2.33572e-15 9.93923e-16 -0 0.71526 0 8.88178e-16 2.33572e-15 1.09332e-15 -0 0 0 0 2.33572e-15 9.93923e-16 -0 0 0 0 0 0 -7.95139e-16 -3.1366 1.37405 -0.40465 7.1352 16.2169 2.04323 -5.24191 0.000244453 0.00010752 -2.57484 -6.23548 27.1301 -3.44417 6.42399e-06 -1.20969e-05 2.94198 -1.23944 -14.4047 0 0 0 1.59028e-15 -3.18055e-15 -2.38542e-15 -0.62253 -3.55271e-15 0 -7.95139e-16 0 -0 0 0 0 1.59028e-15 -3.18055e-15 -2.38542e-15 
-0.342373 12.8019 -1.91553 9.01316 -19.0538 2.82546 0 0 0 -6.95746e-16 0 3.97569e-16 1.36306 -1.79463 6.37822e-08 -13.8706 -57.7708 1.95223 2.44809 -6.72614 -2.88661e-05 -70.1692 62.4727 101.273 2.5622 -7.03959 -1.87459e-05 -15.286 4.2403 2.53673 0.15764 -0.43311 2.32255 -6.4605e-15 -1.19271e-15 3.18055e-15 0 0 0 -6.95746e-16 0 3.97569e-16 -1.30552 -1.79463 -9.59887e-09 -12.6728 -78.4934 -22.7453 -2.54244 -6.9856 0.000503903 126.15 60.0824 -130.982 -2.56826 -7.05622 4.51957e-05 13.6124 35.1273 -28.2072 -0.16473 -0.45259 2.36315 -3.18055e-15 -6.36111e-15 3.18055e-15 0 0 0 -6.95746e-16 0 3.97569e-16 0.02827 2.03559 4.47485e-07 -2.83961 37.0906 -8.43662 0.05672 2.04885 -0.04275 -7.95139e-16 -3.18055e-15 -7.95139e-16 0 0 0 7.95139e-16 3.18055e-15 -3.18055e-15 -0.05417 1.74624 0.17202 -1.53341 14.9539 -5.3357 0.10407 1.76136 -0.12397 0 9.54166e-15 -0 0 0 0 7.95139e-16 3.18055e-15 -3.18055e-15 3.36241 1.20089 -0.31121 -12.2065 -2.938 6.25064 4.983 0.000188411 0.000168558 -11.6643 -20.597 -9.24381 3.48356 4.97784e-06 -1.0964e-05 7.25152 5.34865 30.7836 0 0 0 3.97569e-16 1.39149e-15 -3.18055e-15 0.71526 3.55271e-15 4.44089e-16 3.47873e-16 -1.98785e-16 -6.36111e-15 0 0 0 3.97569e-16 1.39149e-15 -3.18055e-15 0 0 0 7.95139e-16 3.18055e-15 -3.18055e-15 -3.1366 1.37405 -0.40465 7.13484 16.2132 2.0396 -5.24191 0.000244453 0.00010752 -2.57465 -6.24346 27.1316 -3.44417 6.42399e-06 -1.20969e-05 2.94743 -1.23647 -14.409 0 0 0 -7.95139e-16 3.18055e-15 7.95139e-16 -0.62253 0 0 -1.59028e-15 -3.18055e-15 7.95139e-16 0 0 0 -7.95139e-16 3.18055e-15 7.95139e-16 
-0.342052 12.8024 -1.9154 9.01204 -19.0473 2.82176 0 0 0 -2.38542e-15 0 3.97569e-16 1.36306 -1.79463 6.37822e-08 -13.8733 -57.769 1.95319 2.44809 -6.72614 -2.88661e-05 -70.1415 62.4713 101.246 2.5622 -7.03959 -1.87459e-05 -15.2823 4.24171 2.5372 0.15764 -0.43311 2.32255 -1.68967e-15 1.39149e-15 3.18055e-15 0 0 0 -2.38542e-15 0 3.97569e-16 -1.30552 -1.79463 -9.59887e-09 -12.6964 -78.4869 -22.7645 -2.54244 -6.9856 0.000503903 126.127 60.0879 -130.956 -2.56826 -7.05622 4.51957e-05 13.6005 35.1266 -28.2014 -0.16473 -0.45259 2.36315 -3.53113e-31 6.36111e-15 3.18055e-15 0 0 0 -2.38542e-15 0 3.97569e-16 0.02827 2.03559 4.47485e-07 -2.8391 37.0844 -8.43651 0.05672 2.04885 -0.04275 2.38542e-15 3.18055e-15 -7.95139e-16 0 0 0 1.19271e-15 -3.18055e-15 7.95139e-16 -0.05417 1.74624 0.17202 -1.53263 14.9538 -5.33778 0.10407 1.76136 -0.12397 7.95139e-16 0 -0 0 0 0 1.19271e-15 -3.18055e-15 7.95139e-16 3.36241 1.20089 -0.31121 -12.209 -2.93688 6.26414 4.983 0.000188411 0.000168558 -11.6666 -20.6002 -9.25461 3.48356 4.97784e-06 -1.0964e-05 7.25071 5.35227 30.7857 0 0 0 -7.45443e-16 -9.93923e-17 -0 0.71526 -3.55271e-15 -8.88178e-16 -6.95746e-16 -3.97569e-16 -0 0 0 0 -7.45443e-16 -9.93923e-17 -0 0 0 0 1.19271e-15 -3.18055e-15 7.95139e-16 -3.1366 1.37405 -0.40465 7.13447 16.2094 2.03597 -5.24191 0.000244453 0.00010752 -2.57446 -6.25144 27.1331 -3.44417 6.42399e-06 -1.20969e-05 2.95288 -1.23349 -14.4133 0 0 0 0 0 -0 -0.62253 0 0 -3.97569e-15 3.18055e-15 -0 0 0 0 0 0 -0 
-0.341906 12.8026 -1.91535 9.01153 -19.0444 2.82008 0 0 0 -1.19271e-15 0 -7.95139e-16 1.36306 -1.79463 6.37822e-08 -13.8745 -57.7681 1.95363 2.44809 -6.72614 -2.88661e-05 -70.1289 62.4707 101.234 2.5622 -7.03959 -1.87459e-05 -15.2807 4.24236 2.53742 0.15764 -0.43311 2.32255 -5.66536e-15 3.57812e-15 3.18055e-15 0 0 0 -1.19271e-15 0 -7.95139e-16 -1.30552 -1.79463 -9.59887e-09 -12.707 -78.4839 -22.7732 -2.54244 -6.9856 0.000503903 126.117 60.0904 -130.944 -2.56826 -7.05622 4.51957e-05 13.595 35.1263 -28.1988 -0.16473 -0.45259 2.36315 -9.54166e-15 3.18055e-15 -4.77083e-15 0 0 0 -1.19271e-15 0 -7.95139e-16 0.02827 2.03559 4.47485e-07 -2.83886 37.0815 -8.43647 0.05672 2.04885 -0.04275 7.95139e-16 -6.36111e-15 -7.95139e-16 0 0 0 3.97569e-16 -3.18055e-15 7.95139e-16 -0.05417 1.74624 0.17202 -1.53227 14.9537 -5.33873 0.10407 1.76136 -0.12397 -1.59028e-15 9.54166e-15 -0 0 0 0 3.97569e-16 -3.18055e-15 7.95139e-16 3.36241 1.20089 -0.31121 -12.2101 -2.93637 6.27028 4.983 0.000188411 0.000168558 -11.6676 -20.6016 -9.25952 3.48356 4.97784e-06 -1.0964e-05 7.25034 5.35392 30.7866 0 0 0 3.8763e-15 2.98177e-16 3.18055e-15 0.71526 0 8.88178e-16 -9.93923e-17 1.68967e-15 3.18055e-15 0 0 0 3.8763e-15 2.98177e-16 3.18055e-15 0 0 0 3.97569e-16 -3.18055e-15 7.95139e-16 -3.1366 1.37405 -0.40465 7.13431 16.2077 2.03431 -5.24191 0.000244453 0.00010752 -2.57438 -6.25506 27.1338 -3.44417 6.42399e-06 -1.20969e-05 2.95536 -1.23214 -14.4152 0 0 0 7.95139e-16 3.18055e-15 7.95139e-16 -0.62253 -1.77636e-15 0 1.98785e-15 6.36111e-15 7.95139e-16 0 0 0 7.95139e-16 3.18055e-15 7.95139e-16 
-0.341906 12.8026 -1.91535 9.01153 -19.0444 2.82008 0 0 0 -1.19271e-15 0 -7.95139e-16 1.36306 -1.79463 6.37822e-08 -13.8745 -57.7681 1.95363 2.44809 -6.72614 -2.88661e-05 -70.1289 62.4707 101.234 2.5622 -7.03959 -1.87459e-05 -15.2807 4.24236 2.53742 0.15764 -0.43311 2.32255 -5.66536e-15 3.57812e-15 3.18055e-15 0 0 0 -1.19271e-15 0 -7.95139e-16 -1.30552 -1.79463 -9.59887e-09 -12.707 -78.4839 -22.7732 -2.54244 -6.9856 0.000503903 126.117 60.0904 -130.944 -2.56826 -7.05622 4.51957e-05 13.595 35.1263 -28.1988 -0.16473 -0.45259 2.36315 -9.54166e-15 3.18055e-15 -4.77083e-15 0 0 0 -1.19271e-15 0 -7.95139e-16 0.02827 2.03559 4.47485e-07 -2.83886 37.0815 -8.43647 0.05672 2.04885 -0.04275 7.95139e-16 -6.36111e-15 -7.95139e-16 0 0 0 3.97569e-16 -3.18055e-15 7.95139e-16 -0.05417 1.74624 0.17202 -1.53227 14.9537 -5.33873 0.10407 1.76136 -0.12397 -1.59028e-15 9.54166e-15 -0 0 0 0 3.97569e-16 -3.18055e-15 7.95139e-16 3.36241 1.20089 -0.31121 -12.2101 -2.93637 6.27028 4.983 0.000188411 0.000168558 -11.6676 -20.6016 -9.25952 3.48356 4.97784e-06 -1.0964e-05 7.25034 5.35392 30.7866 0 0 0 3.8763e-15 2.98177e-16 3.18055e-15 0.71526 0 8.88178e-16 -9.93923e-17 1.68967e-15 3.18055e-15 0 0 0 3.8763e-15 2.98177e-16 3.18055e-15 0 0 0 3.97569e-16 -3.18055e-15 7.95139e-16 -3.1366 1.37405 -0.40465 7.13431 16.2077 2.03431 -5.24191 0.000244453 0.00010752 -2.57438 -6.25506 27.1338 -3.44417 6.42399e-06 -1.20969e-05 2.95536 -1.23214 -14.4152 0 0 0 7.95139e-16 3.18055e-15 7.95139e-16 -0.62253 -1.77636e-15 0 1.98785e-15 6.36111e-15 7.95139e-16 0 0 0 7.95139e-16 3.18055e-15 7.95139e-16 
